# xmcd
#
# Track frame offsets:
# 150
# 17887
# 33801
# 53276
# 71929
# 82990
# 92667
# 102797
# 112615
# 123083
# 133863
# 146841
# 152636
# 170174
# 179384
# 189127
# 203106
# 208917
# 219827
# 235396
# 243671
# 251296
# 263142
# 275215
# 284988
# 294940
# 303585
# 313380
# 319075
#
# Disc length: 4363 seconds
#
#
# Revision: 0
# Processed by: cddbd v1.5PL3 Copyright (c) Steve Scherf et al.
# Submitted via: FreeRIP 2.70 
#
DISCID=b011091d
DTITLE=Michael Schlesinger - Battuvshin Young Camel Rider
DYEAR=1900
DGENRE=Country
TTITLE0=Four Seasons
TTITLE1=Thr Mountain of Han Khohkii
TTITLE2=Young Camel Rider
TTITLE3=Blue Mountains
TTITLE4=Tooroi Bandi
TTITLE5=Four Year Horse
TTITLE6=Fly on the Window
TTITLE7=Full Moon
TTITLE8=Baby Camel Separated From Mother
TTITLE9=Duuriimaa
TTITLE10=Our Horserider
TTITLE11=Mongolian Cowboy
TTITLE12=Blue Silk Shirt
TTITLE13=Son of Mountains
TTITLE14=Nice Beautiful Deer
TTITLE15=Beauty
TTITLE16=Rich Mongol
TTITLE17=On the banks of the Onon River
TTITLE18=The Rising Sun
TTITLE19=White Mountain Eaagga
TTITLE20=Yellow Colored Horse
TTITLE21=Najan Navaa
TTITLE22=Horse
TTITLE23=Ten Fingers
TTITLE24=Religous Song
TTITLE25=Temple of Zandaazoo
TTITLE26=Deenjiin Nogoo
TTITLE27=Two Spirits (wooden jaw harp)
TTITLE28=Khoomii (throat singing)
EXTD=
EXTT0=
EXTT1=
EXTT2=
EXTT3=
EXTT4=
EXTT5=
EXTT6=
EXTT7=
EXTT8=
EXTT9=
EXTT10=
EXTT11=
EXTT12=
EXTT13=
EXTT14=
EXTT15=
EXTT16=
EXTT17=
EXTT18=
EXTT19=
EXTT20=
EXTT21=
EXTT22=
EXTT23=
EXTT24=
EXTT25=
EXTT26=
EXTT27=
EXTT28=
PLAYORDER=
